# xmcd
#
# Track frame offsets:
#	150
#	11475
#	24750
#	36825
#	49500
#	58875
#	68025
#	76800
#	82350
#	92550
#	102225
#	111000
#	124800
#
# Disc length: 1804 seconds
#
# Revision: 1
# Processed by: cddbd v1.5.2PL0 Copyright (c) Steve Scherf et al.
# Submitted via: audiograbber 1.83.01
#
DISCID=9d070a0d
DTITLE=The Traditionals - Steel Town Anthems
DYEAR=2011
DGENRE=Punk
TTITLE0=At the Bottom
TTITLE1=How have you been?
TTITLE2=Revolution is here
TTITLE3=Sold us Down the River
TTITLE4=Problem with Authority
TTITLE5=Violence (The Oppressed)
TTITLE6=C.I.A.
TTITLE7=Adult in a Youth Cult
TTITLE8=Weekend is Here Again
TTITLE9=Seems So Far Away
TTITLE10=Borstal Breakout (Sham 69)
TTITLE11=Not Gonna Change
TTITLE12=Memories
EXTD=
EXTT0=
EXTT1=
EXTT2=
EXTT3=
EXTT4=
EXTT5=
EXTT6=
EXTT7=
EXTT8=
EXTT9=
EXTT10=
EXTT11=
EXTT12=
PLAYORDER=
